<svg width="235" height="45" viewBox="0 0 235 45" fill="none" xmlns="http://www.w3.org/2000/svg">
<path d="M0.71875 6.5625L7.09375 0.21875H18.625V36.0312H27.5938V45H0.71875V36.0312H9.6875V9.15625H0.71875V6.5625ZM57.0175 9.15625H39.1113V0.1875H59.6425L65.9863 6.5625V20.7188L64.1113 22.5938L65.9863 24.4688V38.625L59.6425 45H39.1113V36.0312H57.0175V27.0938H39.1113V18.125H57.0175V9.15625ZM77.5038 45V6.5625L83.8788 0.1875H122.316V9.15625H86.4725V18.125H113.348V27.0625H86.4725V45H77.5038ZM169.678 9.15625H142.803V36.0312H169.678V9.15625ZM140.209 0.1875H172.271L178.646 6.5625V38.625L172.271 45H140.209L133.834 38.625V6.5625L140.209 0.1875ZM190.164 38.7188L206.258 22.625L190.164 6.5625L196.539 0.1875L212.601 16.2812L228.695 0.1875L234.976 6.46875L218.883 22.5625L234.976 38.625L228.601 45L212.539 28.9062L196.445 45L190.164 38.7188Z" fill="white"/>
</svg>
