<svg id="Capa_1" enable-background="new 0 0 512 512" height="512" viewBox="0 0 512 512" width="512" xmlns="http://www.w3.org/2000/svg" xmlns:xlink="http://www.w3.org/1999/xlink"><linearGradient id="SVGID_1_" gradientUnits="userSpaceOnUse" x1="447.303" x2="262.303" y1="90.424" y2="321.424"><stop offset=".0112" stop-color="#dcfdee"/><stop offset=".3814" stop-color="#e8f1ee"/><stop offset="1" stop-color="#ffdbed"/></linearGradient><path d="m340.867.425c-95.818 8.652-105.091 192.429-146.416 286.587-20.478 46.658-68.772 94.794-60.258 149.782 9.605 62.035 72.897 80.075 121.683 74.14 120.723-14.685 172.899-141.053 180.797-260.801 4.869-73.829 20.3-260.192-95.806-249.708z" fill="url(#SVGID_1_)"/><path d="m447.394 365.678h-31.898c6.381-10.929 11.739-22.529 15.934-34.671-46.535-31.852-101.678-52.036-161.217-56.372 21.113-35.688 48.381-86.538 48.381-111.111 0-40.093-32.502-72.595-72.595-72.595s-72.595 32.502-72.595 72.595c0 24.573 27.269 75.423 48.381 111.111-28.84 2.1-56.644 7.924-82.942 16.989v-3.559c0-5.15-4.18-9.33-9.33-9.33h-84.91c-5.15 0-9.33 4.18-9.33 9.33v69.05c0 5.15 4.18 9.33 9.33 9.33h32.355c34.116 57.823 97.047 96.622 169.041 96.622 39.544 0 76.35-11.711 107.154-31.844v12.835c0 5.15 4.18 9.33 9.33 9.33h84.91c5.15 0 9.33-4.18 9.33-9.33v-69.05c.001-5.15-4.179-9.33-9.329-9.33z" fill="#2626bc" opacity=".11"/><path d="m446.431 310.007c-26.555 76.856-99.55 132.06-185.431 132.06s-158.876-55.204-185.431-132.06c52.785-36.13 116.642-57.26 185.431-57.26s132.646 21.13 185.431 57.26z" fill="#b7c5ff"/><ellipse cx="261" cy="287.341" fill="#9fb0fe" rx="65.979" ry="13.842"/><path d="m261 400.411v41.66c-62.13 0-117.52-28.9-153.46-73.98-2.82-3.54-5.52-7.17-8.08-10.9-8.2-11.87-15.11-24.69-20.55-38.26h101.06c5.52 0 10 4.48 10 10v13.29c0 2.65 1.05 5.19 2.93 7.07l10.22 10.21c1.88 1.88 4.42 2.93 7.07 2.93h12.84c2.65 0 5.19 1.05 7.07 2.93l27.97 27.98c1.88 1.88 2.93 4.42 2.93 7.07z" fill="#02ffb3"/><path d="m153.84 318.931v28.93c0 5.15-4.18 9.33-9.33 9.33h-45.05c-8.2-11.87-15.11-24.69-20.55-38.26z" fill="#01eca5"/><path d="m446.43 310.006c-10.27 29.75-27.51 56.27-49.77 77.57h-53.42c-2.65 0-5.19-1.05-7.07-2.93l-12.72-12.72c-1.88-1.88-2.93-4.42-2.93-7.07v-23.71c0-2.65-1.05-5.19-2.93-7.07l-15.37-15.37c-1.88-1.88-2.93-4.42-2.93-7.07v-6.32c0-2.34-.82-4.59-2.3-6.37-.2-.25-.41-.48-.63-.7l-8.93-8.94c-1.88-1.88-2.93-4.42-2.93-7.07v-28.66c59.81 4.22 115.21 24.45 161.93 56.43z" fill="#02ffb3"/><path d="m326.98 287.336c0 4.86-11.94 9.14-29.99 11.61-.2-.25-.41-.48-.63-.7l-8.93-8.94c-1.88-1.88-2.93-4.42-2.93-7.07v-7.84c24.84 1.991 42.48 7.04 42.48 12.94z" fill="#01eca5"/><path d="m153.844 267.065v69.05c0 5.15-4.18 9.33-9.33 9.33h-84.91c-5.15 0-9.33-4.18-9.33-9.33v-69.05c0-5.15 4.18-9.33 9.33-9.33h84.91c5.15 0 9.33 4.18 9.33 9.33z" fill="#ffa8cf"/><path d="m91.486 287.054h-16.707c-2.762 0-5-2.239-5-5s2.238-5 5-5h16.707c2.762 0 5 2.239 5 5s-2.239 5-5 5z" fill="#ff7eb8"/><path d="m153.844 267.065v69.05c0 5.15-4.18 9.33-9.33 9.33h-16.4c5.15 0 9.33-4.18 9.33-9.33v-69.05c0-5.15-4.18-9.33-9.33-9.33h16.4c5.15 0 9.33 4.18 9.33 9.33z" fill="#ffc4df"/><path d="m153.844 285.145v50.97c0 5.15-4.18 9.33-9.33 9.33h-84.91c-5.15 0-9.33-4.18-9.33-9.33v-15.65h17.6c2.65 0 5.2-1.05 7.07-2.93l13.28-13.28c1.88-1.87 4.42-2.93 7.08-2.93h38.22c1.36 0 2.69-.28 3.92-.8 1.17-.5 2.24-1.21 3.15-2.13z" fill="#8399fe"/><path d="m153.844 285.145v50.97c0 5.15-4.18 9.33-9.33 9.33h-16.4c5.15 0 9.33-4.18 9.33-9.33v-35.59c1.17-.5 2.24-1.21 3.15-2.13z" fill="#9fb0fe"/><path d="m471.724 354.008v69.05c0 5.15-4.18 9.33-9.33 9.33h-84.91c-5.15 0-9.33-4.18-9.33-9.33v-69.05c0-5.15 4.18-9.33 9.33-9.33h84.91c5.15 0 9.33 4.18 9.33 9.33z" fill="#9fb0fe"/><path d="m409.366 373.997h-16.707c-2.762 0-5-2.239-5-5s2.238-5 5-5h16.707c2.762 0 5 2.239 5 5s-2.239 5-5 5z" fill="#dcfdee"/><path d="m471.724 354.008v69.05c0 5.15-4.18 9.33-9.33 9.33h-16.4c5.15 0 9.33-4.18 9.33-9.33v-69.05c0-5.15-4.18-9.33-9.33-9.33h16.4c5.15 0 9.33 4.18 9.33 9.33z" fill="#b7c5ff"/><path d="m471.724 372.088v50.97c0 5.15-4.18 9.33-9.33 9.33h-84.91c-5.15 0-9.33-4.18-9.33-9.33v-15.65h17.6c2.65 0 5.2-1.05 7.07-2.93l13.28-13.28c1.88-1.87 4.42-2.93 7.08-2.93h38.22c1.36 0 2.69-.28 3.92-.8 1.17-.5 2.24-1.21 3.15-2.13z" fill="#97ffd2"/><path d="m471.724 372.088v50.97c0 5.15-4.18 9.33-9.33 9.33h-16.4c5.15 0 9.33-4.18 9.33-9.33v-35.59c1.17-.5 2.24-1.21 3.15-2.13z" fill="#dcfdee"/><path d="m333.595 142.524c0 31.561-44.986 106.475-64.132 136.929-3.921 6.237-13.005 6.237-16.926 0-19.146-30.454-64.132-105.367-64.132-136.929 0-40.093 32.502-72.595 72.595-72.595s72.595 32.502 72.595 72.595z" fill="#ff7eb8"/><path d="m271.905 203.065h-21.81c-2.762 0-5-2.239-5-5s2.238-5 5-5h21.81c2.762 0 5 2.239 5 5s-2.238 5-5 5z" fill="#ffc4df"/><path d="m271.905 222.065h-21.81c-2.762 0-5-2.239-5-5s2.238-5 5-5h21.81c2.762 0 5 2.239 5 5s-2.238 5-5 5z" fill="#ffc4df"/><path d="m128.138 238.269c-5.263 0-10.355-2.851-12.961-7.827-3.734-7.135-.969-15.977 6.164-19.711 7.131-3.734 15.975-.971 19.71 6.163 3.734 7.134.969 15.976-6.164 19.711-2.155 1.128-4.468 1.664-6.749 1.664zm4.43-6.094h.01zm-4.459-13.112c-.733 0-1.461.177-2.129.527-2.249 1.177-3.12 3.965-1.943 6.213s3.963 3.121 6.213 1.942c2.249-1.177 3.12-3.965 1.943-6.213-.57-1.089-1.53-1.891-2.704-2.258-.454-.141-.918-.211-1.38-.211z" fill="#8399fe"/><path d="m140.971 453.519c-7.018 0-13.226-5.088-14.401-12.234-.633-3.85.271-7.715 2.545-10.884s5.646-5.263 9.496-5.896c3.847-.634 7.713.271 10.882 2.545s5.263 5.646 5.896 9.495c.633 3.85-.271 7.714-2.545 10.883s-5.646 5.263-9.495 5.896c-.799.131-1.594.195-2.378.195zm.018-19.208c-.251 0-.503.021-.756.062-1.213.199-2.276.859-2.993 1.858s-1.002 2.218-.803 3.431c.413 2.504 2.788 4.204 5.289 3.795 1.213-.199 2.276-.859 2.993-1.858s1.001-2.217.802-3.43c-.2-1.214-.859-2.276-1.858-2.993-.791-.569-1.72-.865-2.674-.865z" fill="#ff7eb8"/><path d="m248.638 55.16c-3.029 0-5.974-.941-8.483-2.742-3.169-2.274-5.263-5.646-5.896-9.495s.271-7.714 2.545-10.883 5.646-5.263 9.495-5.896c3.847-.634 7.713.271 10.883 2.545 3.169 2.274 5.263 5.646 5.896 9.495s-.271 7.714-2.545 10.883-5.646 5.263-9.495 5.896c-.802.132-1.604.197-2.4.197zm1.589-5.131h.01zm-1.549-14.079c-.251 0-.504.021-.757.062-1.213.199-2.275.859-2.992 1.858s-1.002 2.217-.803 3.43c.2 1.214.859 2.276 1.858 2.993 1 .717 2.218 1.001 3.431.803 1.213-.199 2.275-.859 2.992-1.858s1.002-2.217.803-3.43c-.2-1.214-.859-2.276-1.858-2.993-.791-.568-1.719-.865-2.674-.865z" fill="#01eca5"/><path d="m403.686 242.347h-3.25v-3.25c0-2.762-2.239-5-5-5s-5 2.238-5 5v3.25h-3.25c-2.761 0-5 2.238-5 5s2.239 5 5 5h3.25v3.25c0 2.762 2.239 5 5 5s5-2.238 5-5v-3.25h3.25c2.761 0 5-2.238 5-5s-2.239-5-5-5z" fill="#ff7eb8"/><path d="m118.625 407.083h-3.25v-3.25c0-2.762-2.239-5-5-5s-5 2.238-5 5v3.25h-3.25c-2.761 0-5 2.238-5 5s2.239 5 5 5h3.25v3.25c0 2.762 2.239 5 5 5s5-2.238 5-5v-3.25h3.25c2.761 0 5-2.238 5-5s-2.239-5-5-5z" fill="#01eca5"/><path d="m476.726 354.009c0-7.902-6.429-14.331-14.331-14.331h-23.406c15.162-28.759 23.155-61.011 23.155-93.751 0-2.762-2.239-5-5-5s-5 2.238-5 5c0 32.9-8.497 65.273-24.554 93.751h-50.102c-7.902 0-14.331 6.429-14.331 14.331v53.375c0 .008-.002.016-.002.024v.095c-30.533 19.344-65.812 29.566-102.154 29.566-33.61 0-66.662-8.844-95.581-25.576-25.923-14.999-48.073-36.015-64.462-61.048h43.557c5.927 0 11.025-3.617 13.203-8.76.727-1.714 1.129-3.598 1.129-5.574v-61.907c24.287-8.07 49.559-13.227 75.184-15.341 4.38 7.322 9.125 15.061 14.274 23.251 2.762 4.394 7.508 7.017 12.696 7.017s9.934-2.623 12.696-7.017c5.15-8.191 9.895-15.931 14.276-23.253 46.365 3.82 90.418 17.255 130.958 39.958.773.433 1.611.639 2.438.639 1.751 0 3.451-.922 4.367-2.558 1.35-2.41.49-5.457-1.919-6.806-40.394-22.622-84.17-36.318-130.209-40.769 38.625-66.169 44.988-95.011 44.988-106.801 0-42.786-34.809-77.596-77.595-77.596s-77.595 34.81-77.595 77.596c0 11.79 6.363 40.632 44.989 106.803-23.799 2.311-47.272 7.164-69.938 14.474-1.483-6.332-7.164-11.066-13.941-11.066h-74.525c-.079-2.27-.134-4.547-.134-6.809 0-2.762-2.239-5-5-5s-5 2.238-5 5c0 2.261.052 4.537.128 6.809h-.377c-7.902 0-14.331 6.429-14.331 14.33v10.552c0 2.762 2.239 5 5 5s5-2.238 5-5v-10.552c0-2.388 1.943-4.33 4.331-4.33h84.908c2.388 0 4.331 1.942 4.331 4.33v16.007l-11.808 11.808c-.434.438-.958.791-1.539 1.039-.638.27-1.302.406-1.975.406h-38.22c-3.997 0-7.764 1.558-10.616 4.395l-13.289 13.289c-.92.926-2.206 1.456-3.525 1.456h-12.599v-9.748c0-2.762-2.239-5-5-5s-5 2.238-5 5l-.002 30.398c0 7.901 6.428 14.33 14.33 14.33h29.527c17.523 28.753 42.137 52.842 71.28 69.704 30.439 17.611 65.223 26.92 100.589 26.92 36.136 0 71.279-9.606 102.154-27.842v3.83c0 7.901 6.428 14.33 14.33 14.33h84.91c6.421 0 11.868-4.245 13.685-10.075.42-1.346.646-2.776.646-4.258v-69.045zm-215.726-279.08c37.272 0 67.595 30.323 67.595 67.596 0 31.065-48.5 110.624-63.365 134.268-.935 1.486-2.477 2.339-4.23 2.339s-3.295-.853-4.23-2.339c-14.865-23.644-63.365-103.202-63.365-134.268 0-37.273 30.323-67.596 67.595-67.596zm-193.126 250.536c3.962 0 7.831-1.604 10.606-4.395l13.271-13.27c.956-.951 2.218-1.475 3.554-1.475h38.22c2.017 0 3.99-.401 5.885-1.202 1.798-.769 3.393-1.85 4.721-3.193l4.714-4.714v38.899c0 .596-.121 1.164-.34 1.681-.659 1.553-2.199 2.646-3.989 2.646h-84.909c-2.388 0-4.331-1.943-4.331-4.331v-10.646zm398.851 97.593c0 .596-.121 1.164-.34 1.681-.658 1.554-2.199 2.646-3.99 2.646h-84.908c-2.388 0-4.331-1.942-4.331-4.33v-10.646h12.598c3.962 0 7.831-1.605 10.605-4.395l13.271-13.271c.957-.951 2.218-1.476 3.554-1.476h38.22c2.02 0 3.995-.402 5.885-1.202 1.797-.768 3.392-1.849 4.721-3.192l4.714-4.714v38.899zm-89.238-73.38h84.908c2.388 0 4.331 1.943 4.331 4.331v16.007l-11.805 11.805c-.434.438-.959.792-1.545 1.042-.634.269-1.297.404-1.971.404h-38.22c-3.997 0-7.763 1.558-10.616 4.395l-13.29 13.29c-.92.925-2.205 1.456-3.524 1.456h-12.598v-48.399c0-2.388 1.943-4.331 4.33-4.331z" fill="#2626bc"/><path d="m275.825 150.996c5.899-4.486 9.717-11.575 9.717-19.542 0-13.532-11.009-24.541-24.542-24.541s-24.542 11.009-24.542 24.541c0 7.966 3.818 15.055 9.717 19.542-5.899 4.486-9.717 11.575-9.717 19.541 0 2.762 2.239 5 5 5s5-2.238 5-5c0-8.018 6.523-14.541 14.542-14.541s14.542 6.523 14.542 14.541c0 2.762 2.239 5 5 5s5-2.238 5-5c0-7.966-3.818-15.055-9.717-19.541zm-29.366-19.542c0-8.018 6.523-14.541 14.542-14.541s14.542 6.523 14.542 14.541c0 8.019-6.523 14.542-14.542 14.542s-14.542-6.523-14.542-14.542z" fill="#ffdbed"/></svg>